<svg xmlns="http://www.w3.org/2000/svg" width="116" height="36.131" viewBox="-18788 1475 116 36.131"><g data-name="CompositeLayer"><g data-name="Group 2462" transform="translate(-18788 1475)" clip-path="url(&quot;#a&quot;)"><path d="M1.902 0h112.196c1.05 0 1.902.852 1.902 1.902V34.23c0 1.05-.852 1.901-1.902 1.901H1.902A1.902 1.902 0 0 1 0 34.23V1.902C0 .852.852 0 1.902 0" fill="#fff" fill-rule="evenodd" data-name="Path 1428"/><path d="M7.607 28.83h3.708v-9.71c-.01-.74.115-1.475.37-2.17a4.741 4.741 0 0 1 2.608-2.734 4.977 4.977 0 0 1 1.96-.39c1.412 0 2.472.366 3.178 1.096.706.73 1.06 1.896 1.06 3.496v10.416h3.708v-10.77c0-2.491-.623-4.38-1.87-5.666-1.247-1.286-2.978-1.926-5.191-1.923a6.647 6.647 0 0 0-2.593.442 8.358 8.358 0 0 0-1.743.97 5.6 5.6 0 0 0-1.305 1.414h-.178v-2.472H7.615v18.005l-.008-.004Zm30.267-.088a8.074 8.074 0 0 0 1.766-.972 7.445 7.445 0 0 0 1.45-1.413h.176v2.473h3.708V10.828h-3.708v2.296h-.177a7.86 7.86 0 0 0-1.449-1.304 8.783 8.783 0 0 0-1.766-.92 6.563 6.563 0 0 0-2.436-.425 8.202 8.202 0 0 0-3.336.67 8.116 8.116 0 0 0-2.68 1.89 8.81 8.81 0 0 0-1.802 2.947 10.842 10.842 0 0 0-.654 3.85 10.842 10.842 0 0 0 .654 3.848 8.706 8.706 0 0 0 1.802 2.946 8.115 8.115 0 0 0 2.681 1.891 8.214 8.214 0 0 0 3.336.67 6.239 6.239 0 0 0 2.436-.441m-5.58-4.449c-.967-1.023-1.45-2.513-1.449-4.467.001-1.955.484-3.444 1.45-4.467a5.045 5.045 0 0 1 3.848-1.538 4.805 4.805 0 0 1 3.69 1.538c.95 1.023 1.427 2.512 1.429 4.467 0 1.954-.476 3.444-1.43 4.467a4.818 4.818 0 0 1-3.69 1.538 5.046 5.046 0 0 1-3.848-1.538m17.994 4.536h9.356v-3.355h-5.652V14.181h5.471v-3.357h-5.47V6.943h-3.706v3.881H48.17v3.357h2.12V28.833Zm13.943 0h9.356v-3.355h-5.65V14.181h5.47v-3.357h-5.47V6.943h-3.71v3.881H62.11v3.357h2.12v14.65l.003.002Zm23.405.104c.68-.15 1.342-.37 1.977-.654a7.53 7.53 0 0 0 1.554-.936c.42-.328.822-.682 1.2-1.06a9.31 9.31 0 0 0 1.87-2.928h-3.884a4.876 4.876 0 0 1-1.164 1.236 5.467 5.467 0 0 1-1.59.863c-.759.264-1.56.39-2.364.373a5.733 5.733 0 0 1-1.89-.317 5.305 5.305 0 0 1-2.878-2.436 6.532 6.532 0 0 1-.706-2.01h14.65V19.83a9.53 9.53 0 0 0-.706-3.69 9.052 9.052 0 0 0-1.959-2.966 9.434 9.434 0 0 0-2.928-1.977 9.251 9.251 0 0 0-7.169 0 9.256 9.256 0 0 0-2.928 1.977 9.01 9.01 0 0 0-1.959 2.967 9.985 9.985 0 0 0 0 7.378 9.01 9.01 0 0 0 1.959 2.967 9.4 9.4 0 0 0 2.928 1.978 8.936 8.936 0 0 0 3.585.722 10.72 10.72 0 0 0 2.4-.249m-7.697-10.873c.13-.63.369-1.234.706-1.782.32-.518.733-.973 1.217-1.341a5.366 5.366 0 0 1 1.59-.831 5.595 5.595 0 0 1 1.782-.281 5.49 5.49 0 0 1 3.709 1.32c.44.38.8.842 1.06 1.361.248.49.426 1.013.529 1.553H79.939Zm17.653 10.769h3.708v-9.826a5.61 5.61 0 0 1 .37-2.071c.23-.593.584-1.13 1.039-1.574a4.82 4.82 0 0 1 1.57-1 5.274 5.274 0 0 1 1.958-.356h2.294v-3.532h-2.119a4.537 4.537 0 0 0-2.276.53c-.546.3-1.061.656-1.537 1.06-.454.402-.836.88-1.128 1.412h-.177v-2.649h-3.708v18.006h.006Z" fill="#080808" fill-rule="evenodd" data-name="Path 1429"/></g><path d="M-18780.393 1503.83h3.708v-9.71c-.01-.74.115-1.475.37-2.17a4.741 4.741 0 0 1 2.608-2.734 4.977 4.977 0 0 1 1.96-.39c1.412 0 2.472.366 3.178 1.096.706.73 1.06 1.896 1.06 3.496v10.416h3.708v-10.77c0-2.491-.623-4.38-1.87-5.666-1.247-1.286-2.978-1.926-5.191-1.923a6.647 6.647 0 0 0-2.593.442 8.358 8.358 0 0 0-1.743.97 5.6 5.6 0 0 0-1.305 1.414h-.178v-2.472h-3.704v18.005l-.008-.004Zm30.267-.088a8.074 8.074 0 0 0 1.766-.972 7.445 7.445 0 0 0 1.45-1.413h.176v2.473h3.708v-18.002h-3.708v2.296h-.177a7.86 7.86 0 0 0-1.449-1.304 8.783 8.783 0 0 0-1.766-.92 6.563 6.563 0 0 0-2.436-.425 8.202 8.202 0 0 0-3.336.67 8.116 8.116 0 0 0-2.68 1.89 8.81 8.81 0 0 0-1.802 2.947 10.842 10.842 0 0 0-.654 3.85 10.842 10.842 0 0 0 .654 3.848 8.706 8.706 0 0 0 1.802 2.946 8.115 8.115 0 0 0 2.681 1.891 8.214 8.214 0 0 0 3.336.67 6.239 6.239 0 0 0 2.436-.441m-5.58-4.449c-.967-1.023-1.45-2.513-1.449-4.467.001-1.955.484-3.444 1.45-4.467a5.045 5.045 0 0 1 3.848-1.538 4.805 4.805 0 0 1 3.69 1.538c.95 1.023 1.427 2.512 1.429 4.467 0 1.954-.476 3.444-1.43 4.467a4.818 4.818 0 0 1-3.69 1.538 5.046 5.046 0 0 1-3.848-1.538m17.994 4.536h9.356v-3.355h-5.652v-11.297h5.471v-3.357h-5.47v-3.881h-3.706v3.881h-2.119v3.357h2.12V1503.833Zm13.943 0h9.356v-3.355h-5.65v-11.297h5.47v-3.357h-5.47v-3.881h-3.71v3.881h-2.119v3.357h2.12v14.65l.003.002Zm23.405.104c.68-.15 1.342-.37 1.977-.654a7.53 7.53 0 0 0 1.554-.936c.42-.328.822-.682 1.2-1.06a9.31 9.31 0 0 0 1.87-2.928h-3.884a4.876 4.876 0 0 1-1.164 1.236 5.467 5.467 0 0 1-1.59.863c-.759.264-1.56.39-2.364.373a5.733 5.733 0 0 1-1.89-.317 5.305 5.305 0 0 1-2.878-2.436 6.532 6.532 0 0 1-.706-2.01h14.65v-1.237a9.53 9.53 0 0 0-.706-3.69 9.052 9.052 0 0 0-1.959-2.966 9.434 9.434 0 0 0-2.928-1.977 9.251 9.251 0 0 0-7.169 0 9.256 9.256 0 0 0-2.928 1.977 9.01 9.01 0 0 0-1.959 2.967 9.985 9.985 0 0 0 0 7.378 9.01 9.01 0 0 0 1.959 2.967 9.4 9.4 0 0 0 2.928 1.978 8.936 8.936 0 0 0 3.585.722 10.72 10.72 0 0 0 2.4-.249m-7.697-10.873c.13-.63.369-1.234.706-1.782.32-.518.733-.973 1.217-1.341a5.366 5.366 0 0 1 1.59-.831 5.595 5.595 0 0 1 1.782-.281 5.49 5.49 0 0 1 3.709 1.32c.44.38.8.842 1.06 1.361.248.49.426 1.013.529 1.553h-10.592Zm17.653 10.769h3.708v-9.826a5.61 5.61 0 0 1 .37-2.071c.23-.593.584-1.13 1.039-1.574a4.82 4.82 0 0 1 1.57-1 5.274 5.274 0 0 1 1.958-.356h2.294v-3.532h-2.119a4.537 4.537 0 0 0-2.276.53c-.546.3-1.061.656-1.537 1.06-.454.402-.836.88-1.128 1.412h-.177v-2.649h-3.708v18.006h.006Z" fill="#080808" fill-rule="evenodd" data-name="Path 1429"/></g><defs><clipPath id="a"><path d="M0 0h116v36H0V0z" data-name="Rectangle 511"/></clipPath></defs></svg>